{
    "accessors": [
        {
            "bufferView": 0,
            "byteOffset": 0,
            "componentType": 5126,
            "count": 24,
            "max": [
                1.0000003576278687,
                1.0,
                1.0000003576278687
            ],
            "min": [
                -1.0000004768371582,
                -1.0,
                -1.0000005960464478
            ],
            "name": "accessor_buffer_Cube_POSITION_0",
            "type": "VEC3"
        },
        {
            "bufferView": 1,
            "byteOffset": 0,
            "componentType": 5126,
            "count": 24,
            "max": [
                1.0,
                1.0,
                1.0
            ],
            "min": [
                -1.0,
                -1.0,
                -1.0
            ],
            "name": "accessor_buffer_Cube_NORMAL_0",
            "type": "VEC3"
        },
        {
            "bufferView": 2,
            "byteOffset": 0,
            "componentType": 5123,
            "count": 36,
            "max": [
                23
            ],
            "min": [
                0
            ],
            "name": "accessor_buffer_Cube_0",
            "type": "SCALAR"
        },
        {
            "bufferView": 3,
            "byteOffset": 0,
            "componentType": 5126,
            "count": 43,
            "max": [
                1.7500000000000009
            ],
            "min": [
                0
            ],
            "name": "accessor_buffer_Cube_CubeAction_time_0",
            "type": "SCALAR"
        },
        {
            "bufferView": 4,
            "byteOffset": 0,
            "componentType": 5126,
            "count": 43,
            "max": [
                0.0,
                3.342393398284912,
                5.742984771728516
            ],
            "min": [
                0.0,
                0.0,
                0.0
            ],
            "name": "accessor_buffer_Cube_Cube_CubeAction_0",
            "type": "VEC3"
        },
        {
            "bufferView": 5,
            "byteOffset": 0,
            "componentType": 5126,
            "count": 43,
            "max": [
                0.07364281266927719,
                0.7071068286895752,
                0.7071068286895752,
                0.2936689257621765
            ],
            "min": [
                -0.4843156337738037,
                -0.8469969034194946,
                -0.7000882029533386,
                -0.009321878664195538
            ],
            "name": "accessor_buffer_Cube_Cube_CubeAction_1",
            "type": "VEC4"
        },
        {
            "bufferView": 6,
            "byteOffset": 0,
            "componentType": 5126,
            "count": 43,
            "max": [
                1.0,
                1.0,
                1.0
            ],
            "min": [
                0.49768391251564026,
                0.5152062177658081,
                0.5463253259658813
            ],
            "name": "accessor_buffer_Cube_Cube_CubeAction_2",
            "type": "VEC3"
        }
    ],
    "animations": [
        {
            "channels": [
                {
                    "sampler": 0,
                    "target": {
                        "node": 1,
                        "path": "translation"
                    }
                },
                {
                    "sampler": 1,
                    "target": {
                        "node": 1,
                        "path": "rotation"
                    }
                },
                {
                    "sampler": 2
                }
            ],
            "name": "Cube_CubeAction",
            "samplers": [
                {
                    "input": 3,
                    "interpolation": "LINEAR",
                    "output": 4
                },
                {
                    "input": 3,
                    "interpolation": "LINEAR",
                    "output": 5
                },
                {
                    "input": 3,
                    "interpolation": "LINEAR",
                    "output": 6
                }
            ]
        }
    ],
    "asset": {
        "copyright": "",
        "generator": "blendergltf v1.2.0",
        "version": "2.0"
    },
    "bufferViews": [
        {
            "buffer": 0,
            "byteLength": 288,
            "byteOffset": 0,
            "byteStride": 12,
            "name": "bufferView_buffer_Cube_POSITION_0",
            "target": 34962
        },
        {
            "buffer": 0,
            "byteLength": 288,
            "byteOffset": 288,
            "byteStride": 12,
            "name": "bufferView_buffer_Cube_NORMAL_0",
            "target": 34962
        },
        {
            "buffer": 0,
            "byteLength": 76,
            "byteOffset": 576,
            "name": "bufferView_buffer_Cube_0",
            "target": 34963
        },
        {
            "buffer": 0,
            "byteLength": 172,
            "byteOffset": 652,
            "byteStride": 4,
            "name": "bufferView_buffer_Cube_CubeAction_time_0"
        },
        {
            "buffer": 0,
            "byteLength": 516,
            "byteOffset": 824,
            "byteStride": 12,
            "name": "bufferView_buffer_Cube_Cube_CubeAction_0"
        },
        {
            "buffer": 0,
            "byteLength": 688,
            "byteOffset": 1340,
            "byteStride": 16,
            "name": "bufferView_buffer_Cube_Cube_CubeAction_1"
        },
        {
            "buffer": 0,
            "byteLength": 516,
            "byteOffset": 2028,
            "byteStride": 12,
            "name": "bufferView_buffer_Cube_Cube_CubeAction_2"
        }
    ],
    "buffers": [
        {
            "byteLength": 2544,
            "name": "buffer_animated_cube_lot_rot_scale",
            "uri": "buffer_animated_cube_lot_rot_scale.bin"
        }
    ],
    "cameras": [
        {
            "name": "Camera",
            "perspective": {
                "aspectRatio": 1.703595982340029,
                "yfov": 0.5033799409866333,
                "zfar": 100.0,
                "znear": 0.10000000149011612
            },
            "type": "perspective"
        }
    ],
    "extensions": {
        "KDAB_Kuesa_Layers": {
            "layers": []
        }
    },
    "extensionsUsed": [
        "KDAB_Kuesa_Layers"
    ],
    "materials": [
        {
            "alphaMode": "OPAQUE",
            "doubleSided": false,
            "emissiveFactor": [
                0.0,
                0.0,
                0.0
            ],
            "name": "Material",
            "pbrMetallicRoughness": {
                "baseColorFactor": [
                    0.64000004529953,
                    0.64000004529953,
                    0.64000004529953,
                    1.0
                ],
                "metallicFactor": 0.0,
                "roughnessFactor": 1.0
            }
        }
    ],
    "meshes": [
        {
            "name": "Cube",
            "primitives": [
                {
                    "attributes": {
                        "NORMAL": 1,
                        "POSITION": 0
                    },
                    "indices": 2,
                    "material": 0,
                    "mode": 4
                }
            ]
        }
    ],
    "nodes": [
        {
            "camera": 0,
            "name": "Camera",
            "rotation": [
                -0.09062843769788742,
                -0.8937962651252747,
                -0.2099730223417282,
                0.38578000664711
            ],
            "scale": [
                1.0,
                1.0,
                1.0
            ],
            "translation": [
                -7.481131553649902,
                5.34366512298584,
                -6.5076398849487305
            ]
        },
        {
            "mesh": 0,
            "name": "Cube",
            "rotation": [
                -0.31404736638069153,
                0.28711336851119995,
                0.12819713354110718,
                0.8958268165588379
            ],
            "scale": [
                0.49768391251564026,
                0.5152062177658081,
                0.5463253259658813
            ],
            "translation": [
                0.0,
                1.3150994777679443,
                0.9608383178710938
            ]
        },
        {
            "name": "Lamp",
            "rotation": [
                -0.34203386306762695,
                -0.5232755541801453,
                -0.2841663062572479,
                0.7269423007965088
            ],
            "scale": [
                1.0,
                1.0,
                0.9999999403953552
            ],
            "translation": [
                -4.076245307922363,
                5.903861999511719,
                1.0054539442062378
            ]
        }
    ],
    "scene": 0,
    "scenes": [
        {
            "extras": {
                "active_camera": 0,
                "background_color": [
                    0.05087608844041824,
                    0.05087608844041824,
                    0.05087608844041824
                ],
                "frames_per_second": 24
            },
            "name": "Scene",
            "nodes": [
                1,
                2,
                0
            ]
        }
    ]
}
