{
    "accessors" : [
        {
            "bufferView" : 0,
            "componentType" : 5121,
            "count" : 36,
            "max" : [
                23
            ],
            "min" : [
                0
            ],
            "type" : "SCALAR"
        },
        {
            "bufferView" : 1,
            "componentType" : 5126,
            "count" : 24,
            "max" : [
                1.0000004768371582,
                1.0,
                1.0000005960464478
            ],
            "min" : [
                -1.0000003576278687,
                -1.0,
                -1.0000003576278687
            ],
            "type" : "VEC3"
        },
        {
            "bufferView" : 2,
            "componentType" : 5126,
            "count" : 24,
            "max" : [
                1.0,
                1.0,
                1.0
            ],
            "min" : [
                -1.0,
                -1.0,
                -1.0
            ],
            "type" : "VEC3"
        },
        {
            "bufferView" : 3,
            "componentType" : 5121,
            "count" : 36,
            "max" : [
                23
            ],
            "min" : [
                0
            ],
            "type" : "SCALAR"
        },
        {
            "bufferView" : 4,
            "componentType" : 5126,
            "count" : 24,
            "max" : [
                1.0000004768371582,
                1.0,
                1.0000005960464478
            ],
            "min" : [
                -1.0000003576278687,
                -1.0,
                -1.0000003576278687
            ],
            "type" : "VEC3"
        },
        {
            "bufferView" : 5,
            "componentType" : 5126,
            "count" : 24,
            "max" : [
                1.0,
                1.0,
                1.0
            ],
            "min" : [
                -1.0,
                -1.0,
                -1.0
            ],
            "type" : "VEC3"
        },
        {
            "bufferView" : 6,
            "componentType" : 5121,
            "count" : 36,
            "max" : [
                23
            ],
            "min" : [
                0
            ],
            "type" : "SCALAR"
        },
        {
            "bufferView" : 7,
            "componentType" : 5126,
            "count" : 24,
            "max" : [
                1.0000004768371582,
                1.0,
                1.0000005960464478
            ],
            "min" : [
                -1.0000003576278687,
                -1.0,
                -1.0000003576278687
            ],
            "type" : "VEC3"
        },
        {
            "bufferView" : 8,
            "componentType" : 5126,
            "count" : 24,
            "max" : [
                1.0,
                1.0,
                1.0
            ],
            "min" : [
                -1.0,
                -1.0,
                -1.0
            ],
            "type" : "VEC3"
        },
        {
            "bufferView" : 9,
            "componentType" : 5121,
            "count" : 36,
            "max" : [
                23
            ],
            "min" : [
                0
            ],
            "type" : "SCALAR"
        },
        {
            "bufferView" : 10,
            "componentType" : 5126,
            "count" : 24,
            "max" : [
                1.0000004768371582,
                1.0,
                1.0000005960464478
            ],
            "min" : [
                -1.0000003576278687,
                -1.0,
                -1.0000003576278687
            ],
            "type" : "VEC3"
        },
        {
            "bufferView" : 11,
            "componentType" : 5126,
            "count" : 24,
            "max" : [
                1.0,
                1.0,
                1.0
            ],
            "min" : [
                -1.0,
                -1.0,
                -1.0
            ],
            "type" : "VEC3"
        },
        {
            "bufferView" : 12,
            "componentType" : 5126,
            "count" : 3,
            "max" : [
                3.291666666666667
            ],
            "min" : [
                0.0
            ],
            "type" : "SCALAR"
        },
        {
            "bufferView" : 13,
            "componentType" : 5126,
            "count" : 3,
            "max" : [
                0.0,
                3.0,
                -0.0
            ],
            "min" : [
                0.0,
                0.0,
                -0.0
            ],
            "type" : "VEC3"
        },
        {
            "bufferView" : 14,
            "componentType" : 5126,
            "count" : 3,
            "max" : [
                3.291666666666667
            ],
            "min" : [
                0.0
            ],
            "type" : "SCALAR"
        },
        {
            "bufferView" : 15,
            "componentType" : 5126,
            "count" : 9,
            "max" : [
                0.0,
                3.0,
                -0.0
            ],
            "min" : [
                0.0,
                0.0,
                -3.0
            ],
            "type" : "VEC3"
        },
        {
            "bufferView" : 16,
            "componentType" : 5126,
            "count" : 3,
            "max" : [
                3.291666666666667
            ],
            "min" : [
                0.0
            ],
            "type" : "SCALAR"
        },
        {
            "bufferView" : 17,
            "componentType" : 5126,
            "count" : 3,
            "max" : [
                0.0,
                3.0,
                3.0
            ],
            "min" : [
                0.0,
                0.0,
                3.0
            ],
            "type" : "VEC3"
        },
        {
            "bufferView" : 18,
            "componentType" : 5126,
            "count" : 3,
            "max" : [
                3.291666666666667
            ],
            "min" : [
                0.0
            ],
            "type" : "SCALAR"
        },
        {
            "bufferView" : 19,
            "componentType" : 5126,
            "count" : 9,
            "max" : [
                0.0,
                28.91799545288086,
                -0.0
            ],
            "min" : [
                0.0,
                0.0,
                -6.0
            ],
            "type" : "VEC3"
        }
    ],
    "animations" : [
    {
        "name": "Cubic animation",
        "channels": [
                {
                    "sampler" : 0,
                    "target" : {
                        "node" : 0,
                        "path" : "translation"
                    }
                }
        ],
                "samplers" : [
                    {
                        "input" : 14,
                        "interpolation" : "CUBICSPLINE",
                        "output" : 15
                    }
        ]
    }
    ],
    "asset" : {
        "generator" : "Khronos Blender glTF 2.0 exporter",
        "version" : "2.0"
    },
    "bufferViews" : [
        {
            "buffer" : 0,
            "byteLength" : 36,
            "byteOffset" : 0,
            "target" : 34963
        },
        {
            "buffer" : 0,
            "byteLength" : 288,
            "byteOffset" : 36,
            "target" : 34962
        },
        {
            "buffer" : 0,
            "byteLength" : 288,
            "byteOffset" : 324,
            "target" : 34962
        },
        {
            "buffer" : 0,
            "byteLength" : 36,
            "byteOffset" : 612,
            "target" : 34963
        },
        {
            "buffer" : 0,
            "byteLength" : 288,
            "byteOffset" : 648,
            "target" : 34962
        },
        {
            "buffer" : 0,
            "byteLength" : 288,
            "byteOffset" : 936,
            "target" : 34962
        },
        {
            "buffer" : 0,
            "byteLength" : 36,
            "byteOffset" : 1224,
            "target" : 34963
        },
        {
            "buffer" : 0,
            "byteLength" : 288,
            "byteOffset" : 1260,
            "target" : 34962
        },
        {
            "buffer" : 0,
            "byteLength" : 288,
            "byteOffset" : 1548,
            "target" : 34962
        },
        {
            "buffer" : 0,
            "byteLength" : 36,
            "byteOffset" : 1836,
            "target" : 34963
        },
        {
            "buffer" : 0,
            "byteLength" : 288,
            "byteOffset" : 1872,
            "target" : 34962
        },
        {
            "buffer" : 0,
            "byteLength" : 288,
            "byteOffset" : 2160,
            "target" : 34962
        },
        {
            "buffer" : 0,
            "byteLength" : 12,
            "byteOffset" : 2448
        },
        {
            "buffer" : 0,
            "byteLength" : 36,
            "byteOffset" : 2460
        },
        {
            "buffer" : 0,
            "byteLength" : 12,
            "byteOffset" : 2496
        },
        {
            "buffer" : 0,
            "byteLength" : 108,
            "byteOffset" : 2508
        },
        {
            "buffer" : 0,
            "byteLength" : 12,
            "byteOffset" : 2616
        },
        {
            "buffer" : 0,
            "byteLength" : 36,
            "byteOffset" : 2628
        },
        {
            "buffer" : 0,
            "byteLength" : 12,
            "byteOffset" : 2664
        },
        {
            "buffer" : 0,
            "byteLength" : 108,
            "byteOffset" : 2676
        }
    ],
    "buffers" : [
        {
            "byteLength" : 2784,
            "uri" : "animationparser_cubic.bin"
        }
    ],
    "materials" : [
        {
            "name" : "Material",
            "pbrMetallicRoughness" : {
                "baseColorFactor" : [
                    0.027253622222745744,
                    0.640000066757203,
                    0.0,
                    1.0
                ],
                "metallicFactor" : 0.0
            }
        },
        {
            "name" : "Material.002",
            "pbrMetallicRoughness" : {
                "baseColorFactor" : [
                    0.640000066757203,
                    0.0,
                    0.0013738269191060498,
                    1.0
                ],
                "metallicFactor" : 0.0
            }
        },
        {
            "name" : "Material.003",
            "pbrMetallicRoughness" : {
                "baseColorFactor" : [
                    0.004445825210896509,
                    0.0,
                    0.640000066757203,
                    1.0
                ],
                "metallicFactor" : 0.0
            }
        },
        {
            "name" : "Material.004",
            "pbrMetallicRoughness" : {
                "baseColorFactor" : [
                    0.640000066757203,
                    0.5669139469700148,
                    0.0,
                    1.0
                ],
                "metallicFactor" : 0.0
            }
        }
    ],
    "meshes" : [
        {
            "name" : "Cube.002",
            "primitives" : [
                {
                    "attributes" : {
                        "NORMAL" : 2,
                        "POSITION" : 1
                    },
                    "indices" : 0,
                    "material" : 0
                }
            ]
        },
        {
            "name" : "Cube.003",
            "primitives" : [
                {
                    "attributes" : {
                        "NORMAL" : 5,
                        "POSITION" : 4
                    },
                    "indices" : 3,
                    "material" : 3
                }
            ]
        },
        {
            "name" : "Cube",
            "primitives" : [
                {
                    "attributes" : {
                        "NORMAL" : 8,
                        "POSITION" : 7
                    },
                    "indices" : 6,
                    "material" : 1
                }
            ]
        },
        {
            "name" : "Cube.001",
            "primitives" : [
                {
                    "attributes" : {
                        "NORMAL" : 11,
                        "POSITION" : 10
                    },
                    "indices" : 9,
                    "material" : 2
                }
            ]
        }
    ],
    "nodes" : [
        {
            "mesh" : 3,
            "name" : "Cube.001",
            "translation" : [
                0.0,
                0.0,
                -3.0
            ]
        }
    ],
    "scene" : 0,
    "scenes" : [
        {
            "name" : "Scene",
            "nodes" : [
                0
            ]
        }
    ]
}
