{
    "accessors" : [
        {
            "bufferView" : 0,
            "componentType" : 5123,
            "count" : 3474,
            "max" : [
                2327
            ],
            "min" : [
                0
            ],
            "type" : "SCALAR"
        },
        {
            "bufferView" : 1,
            "componentType" : 5126,
            "count" : 2328,
            "max" : [
                1.000000238418579,
                4.425510406494141,
                4.359119892120361
            ],
            "min" : [
                -1.0,
                -1.0,
                -4.243017196655273
            ],
            "type" : "VEC3"
        },
        {
            "bufferView" : 2,
            "componentType" : 5126,
            "count" : 2328,
            "max" : [
                1.0,
                1.0,
                1.0
            ],
            "min" : [
                -1.0,
                -1.0,
                -1.0
            ],
            "type" : "VEC3"
        },
        {
            "bufferView" : 3,
            "componentType" : 5123,
            "count" : 2328,
            "max" : [
                6,
                1,
                0,
                0
            ],
            "min" : [
                0,
                0,
                0,
                0
            ],
            "type" : "VEC4"
        },
        {
            "bufferView" : 4,
            "componentType" : 5126,
            "count" : 2328,
            "max" : [
                1.0000077486038208,
                1.0,
                0.0,
                0.0
            ],
            "min" : [
                0.5360631942749023,
                0.0,
                0.0,
                0.0
            ],
            "type" : "VEC4"
        },
        {
            "bufferView" : 5,
            "componentType" : 5126,
            "count" : 7,
            "max" : [
                1.0,
                7.105426934084528e-15,
                8.742277657347586e-08,
                0.0,
                8.742277657347586e-08,
                1.0,
                1.0,
                0.0,
                6.357301884918343e-08,
                1.0,
                1.0,
                0.0,
                0.0,
                1.8536136150360107,
                3.4216840267181396,
                1.0
            ],
            "min" : [
                -1.0,
                0.0,
                0.0,
                0.0,
                0.0,
                -1.0,
                0.0,
                0.0,
                0.0,
                -1.0,
                -1.0,
                0.0,
                -2.17526803680812e-07,
                -1.8536136150360107,
                -3.053469181060791,
                1.0
            ],
            "type" : "MAT4"
        }
    ],
    "asset" : {
        "generator" : "Khronos Blender glTF 2.0 exporter",
        "version" : "2.0"
    },
    "bufferViews" : [
        {
            "buffer" : 0,
            "byteLength" : 6948,
            "byteOffset" : 0,
            "target" : 34963
        },
        {
            "buffer" : 0,
            "byteLength" : 27936,
            "byteOffset" : 6948,
            "target" : 34962
        },
        {
            "buffer" : 0,
            "byteLength" : 27936,
            "byteOffset" : 34884,
            "target" : 34962
        },
        {
            "buffer" : 0,
            "byteLength" : 18624,
            "byteOffset" : 62820,
            "target" : 34962
        },
        {
            "buffer" : 0,
            "byteLength" : 37248,
            "byteOffset" : 81444,
            "target" : 34962
        },
        {
            "buffer" : 0,
            "byteLength" : 448,
            "byteOffset" : 118692
        }
    ],
    "buffers" : [
        {
            "byteLength" : 119140,
            "uri" : "joint_hierarchy.bin"
        }
    ],
    "meshes" : [
        {
            "name" : "Cube.001",
            "primitives" : [
                {
                    "attributes" : {
                        "JOINTS_0" : 3,
                        "NORMAL" : 2,
                        "POSITION" : 1,
                        "WEIGHTS_0" : 4
                    },
                    "indices" : 0
                }
            ]
        }
    ],
    "nodes" : [
        {
            "children" : [
                1,
                2
            ],
            "name" : "Armature"
        },
        {
            "mesh" : 0,
            "name" : "Cube",
            "skin" : 0
        },
        {
            "children" : [
                3
            ],
            "name" : "Armature_Hip"
        },
        {
            "children" : [
                4,
                6,
                8
            ],
            "name" : "Armature_Chest",
            "translation" : [
                0.0,
                1.0,
                0.0
            ]
        },
        {
            "children" : [
                5
            ],
            "name" : "Armature_Shoulder.R",
            "rotation" : [
                -0.7071068286895752,
                0.0,
                0.0,
                0.7071068286895752
            ],
            "translation" : [
                0.0,
                0.8536136150360107,
                0.0
            ]
        },
        {
            "name" : "Armature_Arm.R",
            "rotation" : [
                -0.7071068286895752,
                0.0,
                0.0,
                0.7071068286895752
            ],
            "translation" : [
                0.0,
                3.053469181060791,
                0.0
            ]
        },
        {
            "children" : [
                7
            ],
            "name" : "Armature_Shoulder.L",
            "rotation" : [
                3.090862321641907e-08,
                0.7071068286895752,
                0.7071068286895752,
                3.090862321641907e-08
            ],
            "translation" : [
                0.0,
                0.8536136150360107,
                0.0
            ]
        },
        {
            "name" : "Armature_Arm.L",
            "rotation" : [
                -8.432166076488556e-09,
                0.7071068286895752,
                -0.7071068286895752,
                -5.338508657359853e-08
            ],
            "translation" : [
                0.0,
                3.4216840267181396,
                0.0
            ]
        },
        {
            "name" : "Armature_Head",
            "translation" : [
                0.0,
                0.8536136150360107,
                0.0
            ]
        }
    ],
    "scene" : 0,
    "scenes" : [
        {
            "name" : "Scene",
            "nodes" : [
                0
            ]
        }
    ],
    "skins" : [
        {
            "name": "armature",
            "inverseBindMatrices" : 5,
            "joints" : [
                2,
                3,
                4,
                5,
                6,
                7,
                8
            ],
            "skeleton" : 0
        }
    ]
}
